<svg xmlns="http://www.w3.org/2000/svg" width="410" height="404" viewBox="0 0 410 404" fill="none">
  <path d="M399.641 59.5246L215.643 388.545C211.844 395.338 201.405 395.378 197.553 388.618L10.5817 59.5563C6.38087 52.1896 12.6802 43.2665 21.0281 44.7586L205.223 77.6824C206.398 77.8924 207.601 77.8904 208.776 77.6763L389.119 44.8058C397.439 43.2894 403.768 52.1434 399.641 59.5246Z" fill="url(#paint0_linear)"/>
  <path d="M292.965 1.5744L156.801 28.2552C155.563 28.4981 154.437 29.1947 153.659 30.2145L58.909 154.553C57.2411 156.739 58.8345 159.769 61.4934 159.34L113.42 150.884C114.666 150.682 115.854 151.48 116.148 152.712L134.912 232.266C135.198 233.464 136.828 233.805 137.534 232.759L143.888 223.217C144.443 222.383 145.585 222.211 146.36 222.865L193.197 262.407C193.962 263.053 195.09 262.892 195.639 262.066L296.62 107.267C297.393 106.082 296.552 104.56 295.142 104.622L241.004 106.854C239.698 106.911 238.758 105.603 239.211 104.385L306.398 7.1755C307.228 5.79191 306.198 4.02794 304.625 4.33126Z" fill="url(#paint1_linear)"/>
  <defs>
    <linearGradient id="paint0_linear" x1="6.00017" y1="32.9999" x2="235" y2="344" gradientUnits="userSpaceOnUse">
      <stop stop-color="#41D1FF"/>
      <stop offset="1" stop-color="#BD34FE"/>
    </linearGradient>
    <linearGradient id="paint1_linear" x1="194.651" y1="8.81818" x2="236.076" y2="292.989" gradientUnits="userSpaceOnUse">
      <stop stop-color="#FFEA83"/>
      <stop offset="0.0833333" stop-color="#FFDD35"/>
      <stop offset="1" stop-color="#FFA800"/>
    </linearGradient>
  </defs>
</svg>
